<svg xmlns="http://www.w3.org/2000/svg" width="300" height="620" viewBox="0 0 300 620">
  <rect width="300" height="620" rx="28" fill="#f4f4f4"/>
  <rect x="14" y="14" width="272" height="592" rx="22" fill="#ffffff"/>
  <rect x="14" y="14" width="272" height="54" rx="22" fill="#ffffff"/>
  <text x="30" y="49" font-family="Arial, sans-serif" font-size="24" font-weight="700" fill="#111111">YouTube</text>
  <circle cx="232" cy="40" r="8" fill="#111111"/>
  <circle cx="256" cy="40" r="8" fill="#111111"/>
  <rect x="28" y="82" width="54" height="28" rx="14" fill="#111111"/>
  <text x="44" y="101" font-family="Arial, sans-serif" font-size="13" fill="#ffffff">All</text>
  <rect x="90" y="82" width="70" height="28" rx="14" fill="#efefef"/>
  <text x="106" y="101" font-family="Arial, sans-serif" font-size="13" fill="#111111">Music</text>
  <rect x="168" y="82" width="82" height="28" rx="14" fill="#efefef"/>
  <text x="184" y="101" font-family="Arial, sans-serif" font-size="13" fill="#111111">Mixes</text>
  <rect x="28" y="128" width="244" height="137" rx="3" fill="#cfe8f7"/>
  <path d="M28 238 L92 180 L132 218 L170 168 L272 244 V265 H28Z" fill="#8cc5df"/>
  <circle cx="232" cy="154" r="18" fill="#ffffff" opacity="0.8"/>
  <circle cx="52" cy="296" r="24" fill="#28eac8"/>
  <text x="86" y="292" font-family="Arial, sans-serif" font-size="17" font-weight="700" fill="#111111">Heart Touching Nasheed</text>
  <text x="86" y="316" font-family="Arial, sans-serif" font-size="13" fill="#666666">19M views - Jul 1, 2016</text>
  <rect x="28" y="360" width="244" height="137" rx="3" fill="#f6d7d7"/>
  <path d="M28 468 L82 430 L138 454 L182 405 L272 462 V497 H28Z" fill="#eeb2b2"/>
  <circle cx="52" cy="528" r="24" fill="#28eac8"/>
  <text x="86" y="524" font-family="Arial, sans-serif" font-size="17" font-weight="700" fill="#111111">Compose UI Patterns</text>
  <text x="86" y="548" font-family="Arial, sans-serif" font-size="13" fill="#666666">428K views - 2 weeks ago</text>
  <rect x="14" y="566" width="272" height="40" rx="0" fill="#ffffff"/>
  <text x="38" y="592" font-family="Arial, sans-serif" font-size="12" fill="#e60000">Home</text>
  <text x="100" y="592" font-family="Arial, sans-serif" font-size="12" fill="#555555">Shorts</text>
  <text x="168" y="592" font-family="Arial, sans-serif" font-size="12" fill="#555555">Subs</text>
  <text x="230" y="592" font-family="Arial, sans-serif" font-size="12" fill="#555555">Library</text>
</svg>
