<svg xmlns="http://www.w3.org/2000/svg" width="300" height="620" viewBox="0 0 300 620">
  <rect width="300" height="620" rx="28" fill="#f4f4f4"/>
  <rect x="14" y="14" width="272" height="592" rx="22" fill="#ffffff"/>
  <text x="30" y="54" font-family="Arial, sans-serif" font-size="22" fill="#111111">Recent</text>
  <rect x="32" y="78" width="112" height="72" fill="#8fd0e5"/>
  <rect x="154" y="78" width="112" height="72" fill="#f2d5d5"/>
  <rect x="32" y="146" width="112" height="4" fill="#ff0000"/>
  <rect x="154" y="146" width="112" height="4" fill="#ff0000"/>
  <text x="38" y="176" font-family="Arial, sans-serif" font-size="14" font-weight="700" fill="#111111">Heart Touching</text>
  <text x="38" y="196" font-family="Arial, sans-serif" font-size="12" fill="#666666">An Naffe</text>
  <text x="160" y="176" font-family="Arial, sans-serif" font-size="14" font-weight="700" fill="#111111">Heart Touching</text>
  <text x="160" y="196" font-family="Arial, sans-serif" font-size="12" fill="#666666">An Naffe</text>
  <line x1="28" y1="228" x2="272" y2="228" stroke="#e0e0e0"/>
  <text x="54" y="270" font-family="Arial, sans-serif" font-size="19" fill="#111111">History</text>
  <text x="54" y="326" font-family="Arial, sans-serif" font-size="19" fill="#111111">Your videos</text>
  <text x="54" y="382" font-family="Arial, sans-serif" font-size="19" fill="#111111">Downloads</text>
  <text x="54" y="405" font-family="Arial, sans-serif" font-size="13" fill="#666666">67 videos</text>
  <text x="54" y="462" font-family="Arial, sans-serif" font-size="19" fill="#111111">Watch later</text>
  <text x="54" y="485" font-family="Arial, sans-serif" font-size="13" fill="#666666">4 unwatched videos</text>
  <line x1="28" y1="514" x2="272" y2="514" stroke="#e0e0e0"/>
  <text x="34" y="554" font-family="Arial, sans-serif" font-size="20" font-weight="700" fill="#111111">Playlists</text>
  <text x="196" y="554" font-family="Arial, sans-serif" font-size="14" fill="#111111">Recently</text>
  <text x="52" y="594" font-family="Arial, sans-serif" font-size="18" fill="#0b84ff">+ New Playlist</text>
</svg>
