<svg xmlns="http://www.w3.org/2000/svg" width="300" height="620" viewBox="0 0 300 620">
  <rect width="300" height="620" rx="28" fill="#111111"/>
  <rect x="14" y="14" width="272" height="592" rx="22" fill="#0f334a"/>
  <linearGradient id="sky" x1="0" y1="0" x2="0" y2="1">
    <stop offset="0" stop-color="#07365c"/>
    <stop offset="0.55" stop-color="#1aa3ca"/>
    <stop offset="1" stop-color="#f0c886"/>
  </linearGradient>
  <rect x="14" y="14" width="272" height="592" rx="22" fill="url(#sky)"/>
  <path d="M14 438 C80 388 164 392 286 356 V606 H14Z" fill="#c99b56"/>
  <path d="M34 502 C112 452 186 462 286 420 V606 H34Z" fill="#f0c982" opacity="0.9"/>
  <text x="32" y="54" font-family="Arial, sans-serif" font-size="32" fill="#ffffff">&#8592;</text>
  <text x="32" y="476" font-family="Arial, sans-serif" font-size="17" fill="#ffffff">"Poly Amazing Race" san choi</text>
  <text x="32" y="498" font-family="Arial, sans-serif" font-size="17" fill="#ffffff">day thu vi moi danh cho sinh...</text>
  <circle cx="54" cy="540" r="22" fill="#28eac8"/>
  <text x="86" y="547" font-family="Arial, sans-serif" font-size="17" fill="#ffffff">@ChannelName</text>
  <rect x="170" y="516" width="92" height="42" rx="21" fill="#ffffff"/>
  <text x="188" y="543" font-family="Arial, sans-serif" font-size="17" fill="#111111">Subscribe</text>
  <text x="244" y="320" font-family="Arial, sans-serif" font-size="28" fill="#ffffff">Like</text>
  <text x="252" y="346" font-family="Arial, sans-serif" font-size="13" fill="#ffffff">2.3k</text>
  <text x="244" y="392" font-family="Arial, sans-serif" font-size="18" fill="#ffffff">Chat</text>
  <text x="255" y="418" font-family="Arial, sans-serif" font-size="13" fill="#ffffff">44</text>
  <text x="244" y="466" font-family="Arial, sans-serif" font-size="18" fill="#ffffff">Share</text>
</svg>
