<svg xmlns="http://www.w3.org/2000/svg" width="300" height="620" viewBox="0 0 300 620">
  <rect width="300" height="620" rx="28" fill="#f4f4f4"/>
  <rect x="14" y="14" width="272" height="592" rx="22" fill="#ffffff"/>
  <circle cx="52" cy="60" r="28" fill="#dce6e3"/>
  <circle cx="108" cy="60" r="28" fill="#ddd2ca"/>
  <circle cx="164" cy="60" r="28" fill="#e9e9e9"/>
  <circle cx="220" cy="60" r="28" fill="#d8d2d2"/>
  <text x="38" y="113" font-family="Arial, sans-serif" font-size="13" fill="#666666">Like</text>
  <text x="92" y="113" font-family="Arial, sans-serif" font-size="13" fill="#666666">Bassera</text>
  <text x="148" y="113" font-family="Arial, sans-serif" font-size="13" fill="#666666">Alor</text>
  <text x="204" y="113" font-family="Arial, sans-serif" font-size="13" fill="#666666">Rain</text>
  <text x="260" y="67" font-family="Arial, sans-serif" font-size="17" font-weight="700" fill="#065fd4">All</text>
  <line x1="26" y1="134" x2="274" y2="134" stroke="#e0e0e0"/>
  <rect x="26" y="150" width="42" height="28" rx="14" fill="#3f3f3f"/>
  <text x="42" y="169" font-family="Arial, sans-serif" font-size="13" fill="#ffffff">All</text>
  <rect x="76" y="150" width="64" height="28" rx="14" fill="#f1f1f1" stroke="#d6d6d6"/>
  <text x="92" y="169" font-family="Arial, sans-serif" font-size="13" fill="#111111">Today</text>
  <rect x="148" y="150" width="86" height="28" rx="14" fill="#f1f1f1" stroke="#d6d6d6"/>
  <text x="162" y="169" font-family="Arial, sans-serif" font-size="13" fill="#111111">Yesterday</text>
  <rect x="14" y="196" width="272" height="154" fill="#dce9ef"/>
  <path d="M14 314 L96 250 L150 280 L210 224 L286 302 V350 H14Z" fill="#b6cbd6"/>
  <rect x="230" y="318" width="42" height="20" rx="5" fill="#ffffff"/>
  <text x="238" y="332" font-family="Arial, sans-serif" font-size="9" font-weight="700" fill="#111111">SHORTS</text>
  <circle cx="48" cy="384" r="22" fill="#5aa9c8"/>
  <text x="82" y="380" font-family="Arial, sans-serif" font-size="16" font-weight="700" fill="#111111">Heart Touching</text>
  <text x="82" y="402" font-family="Arial, sans-serif" font-size="14" fill="#666666">19,210,251 views Jul - 1, 2016</text>
  <rect x="14" y="438" width="272" height="154" fill="#eef4f6"/>
  <path d="M14 520 L88 470 L152 502 L224 458 L286 508 V592 H14Z" fill="#cbdde4"/>
  <rect x="230" y="560" width="42" height="20" rx="5" fill="#ffffff"/>
  <text x="238" y="574" font-family="Arial, sans-serif" font-size="9" font-weight="700" fill="#111111">SHORTS</text>
</svg>
